<?xml version="1.0" encoding="UTF-8"?>
<svg width="64" height="64" version="1.1" xmlns="http://www.w3.org/2000/svg"><g fill-rule="evenodd"><g stroke="#fff" stroke-width="4"><path d="m7 9c-2.77 0-5 2.23-5 5v38c0 2.77 2.23 5 5 5h42c2.77 0 5-2.23 5-5v-38c0-2.77-2.23-5-5-5h-2v3.5c0 2.493-2.007 4.5-4.5 4.5s-4.5-2.007-4.5-4.5v-3.5h-20v3.5c0 2.493-2.007 4.5-4.5 4.5s-4.5-2.007-4.5-4.5v-3.5h-2z" fill="#00aad4"/><rect x="11" y="3" width="5" height="12" rx="2.5" ry="2.5" fill="#808080"/><rect x="40" y="3" width="5" height="12" rx="2.5" ry="2.5" fill="#808080"/></g><path d="m7 9c-2.77 0-5 2.23-5 5v38c0 2.77 2.23 5 5 5h42c2.77 0 5-2.23 5-5v-38c0-2.77-2.23-5-5-5h-2v3.5c0 2.493-2.007 4.5-4.5 4.5s-4.5-2.007-4.5-4.5v-3.5h-20v3.5c0 2.493-2.007 4.5-4.5 4.5s-4.5-2.007-4.5-4.5v-3.5h-2z" fill="#00aad4"/><rect x="5" y="20" width="46" height="34" rx="3" ry="3" fill="#fff"/><g fill="#afdde9"><rect x="29" y="22" width="9" height="6" rx="1" ry="1"/><rect x="40" y="22" width="9" height="6" rx="1" ry="1"/><rect x="7" y="30" width="9" height="6" rx="1" ry="1"/><rect x="18" y="30" width="9" height="6" rx="1" ry="1"/><rect x="29" y="30" width="9" height="6" rx="1" ry="1"/><rect x="40" y="30" width="9" height="6" rx="1" ry="1"/><rect x="7" y="38" width="9" height="6" rx="1" ry="1"/><rect x="18" y="38" width="9" height="6" rx="1" ry="1"/><rect x="29" y="38" width="9" height="6" rx="1" ry="1"/><rect x="40" y="38" width="9" height="6" rx="1" ry="1"/><rect x="7" y="46" width="9" height="6" rx="1" ry="1"/></g><rect x="11" y="3" width="5" height="12" rx="2.5" ry="2.5" fill="#b3b3b3"/><rect x="40" y="3" width="5" height="12" rx="2.5" ry="2.5" fill="#b3b3b3"/><path d="m58.77 21.845c-1.0638 0.0027-2.0888 0.57367-2.6306 1.5797l-8.3078 15.429c-3.5247-0.50299-7.0299 1.3276-9.3034 4.6177l-5.1484 7.451 17.609 9.4824 3.3867-8.3983c1.4954-3.7079 1.0953-7.641-1.2628-10.307l8.3078-15.429c0.78806-1.4633 0.24456-3.2763-1.2187-4.0644-0.45728-0.24627-0.94827-0.36227-1.4318-0.36102z" fill="#c87137" stroke="#fff" stroke-width="4"/><g transform="rotate(28.305 -32.036 252.45)"><rect x="-63" y="6" width="6" height="24" rx="3" ry="3" fill="#c87137"/><path d="m-60 26c-4.986 0-8.4369 3.9322-9 9l-1 9h20l-1-9c-0.56309-5.0678-4.014-9-9-9z" fill="#fc0"/><path d="m-67.84 31c-0.46034 0.91716-0.80131 1.9268-1.0078 3h17.695c-0.2065-1.0732-0.54747-2.0828-1.0078-3z" fill="#806600"/><path d="m-62 37c-0.554 0-1 0.892-1 2v5h2v-5c0-1.108-0.446-2-1-2zm4 0c-0.554 0-1 0.892-1 2v5h2v-5c0-1.108-0.446-2-1-2zm-9 2c-0.554 0-1 0.892-1 2v3h2v-3c0-1.108-0.446-2-1-2zm14 0c-0.554 0-1 0.892-1 2v3h2v-3c0-1.108-0.446-2-1-2z" fill="#d4aa00"/></g></g></svg>
